<svg width="440" height="275" viewBox="0 0 440 275" fill="none" xmlns="http://www.w3.org/2000/svg">
<path d="M-441.718 230.928C-415.983 198.362 -386.23 194.144 -352.457 218.273C-298.729 270.111 -268.975 265.892 -263.196 205.618C-241.705 143.116 -211.951 138.898 -173.934 192.963C-135.287 248.561 -105.533 244.342 -84.6732 180.309C-63.4078 116.218 -33.654 111.999 4.58807 167.654C49.8604 240.689 79.6141 236.471 93.8493 154.999C112.561 72.8932 142.315 68.6749 183.111 142.345C210.859 177.867 240.613 173.649 272.372 129.69C296.642 86.7926 326.396 82.5743 361.633 117.035C395.615 149.242 425.369 145.023 450.894 104.38C475.503 63.8674 505.256 59.6492 540.156 91.7256C593.177 154.744 622.931 150.525 629.417 79.0709C649.368 5.70735 679.122 1.48911 718.678 66.4162" stroke="#FFEBB4" stroke-width="40"/>
</svg>
